# xmcd
#
# Track frame offsets:
#	150
#	27219
#	47228
#	72957
#	96925
#
# Disc length: 1422 seconds
#
# Revision: 12
# Processed by: cddbd v1.5.2PL0 Copyright (c) Steve Scherf et al.
# Submitted via: Jack! The Knife 20 Magnifico
#
DISCID=3e058c05
DTITLE=Dark Opera - Black Sewage
DYEAR=2007
DGENRE=Black Metal
TTITLE0=Winterframes
TTITLE1=Deep Oblivion
TTITLE2=Cut Limb
TTITLE3=Black Sewage
TTITLE4=Awake Of Innate Maleditcion
EXTD=
EXTT0=
EXTT1=
EXTT2=
EXTT3=
EXTT4=
PLAYORDER=
